<svg xmlns="http://www.w3.org/2000/svg" viewBox="0 0 36.5 36.5"><defs><style>.cls-1{fill:#fff;stroke:#009ccb;stroke-miterlimit:10;}.cls-2{fill:#009ccb;}</style></defs><title>Assignment</title><g id="Layer_2" data-name="Layer 2"><g id="styleguid"><path class="cls-1" d="M22,31.17h6.39a3,3,0,0,0,3-3V3.37A2.88,2.88,0,0,0,28.54.5H3.38A2.88,2.88,0,0,0,.5,3.37v24.9a2.88,2.88,0,0,0,2.88,2.87H22Z"/><rect class="cls-2" x="6.3" y="7.63" width="19.33" height="1.44"/><rect class="cls-2" x="6.3" y="15.29" width="19.33" height="1.44"/><rect class="cls-2" x="6.3" y="22.95" width="9.66" height="1.44"/><path class="cls-2" d="M23.65,27.18A3.45,3.45,0,1,1,27.1,30.6,3.43,3.43,0,0,1,23.65,27.18Zm5.2,8A2,2,0,0,1,30,34h0a2,2,0,0,1,1.58,0l1.32.62,1.79-1.77L34,31.58A1.93,1.93,0,0,1,34,30h0a2,2,0,0,1,1.15-1.09l1.37-.48V25.93l-1.37-.48A2,2,0,0,1,34,24.36h0a1.93,1.93,0,0,1,0-1.58l.62-1.3L32.85,19.7l-1.31.62a2,2,0,0,1-1.59,0h0a2,2,0,0,1-1.1-1.14l-.49-1.36H25.83l-.49,1.36a2,2,0,0,1-1.1,1.14h0a2,2,0,0,1-1.59,0l-1.31-.62-1.79,1.77.62,1.3a1.93,1.93,0,0,1,0,1.58h0a2,2,0,0,1-1.15,1.09l-1.37.48v2.51l1.37.48A2,2,0,0,1,20.21,30h0a1.93,1.93,0,0,1,0,1.58l-.62,1.3,1.79,1.77L22.65,34a2,2,0,0,1,1.59,0h0a2,2,0,0,1,1.1,1.14l.49,1.36h2.53Z"/></g></g></svg>