<svg xmlns="http://www.w3.org/2000/svg" viewBox="0 0 20 20"><defs><style>.cls-1{fill:none;stroke:#000;stroke-miterlimit:10;stroke-width:1.59px;}</style></defs><title>Asset 1</title><g id="Layer_2" data-name="Layer 2"><g id="Layer_1-2" data-name="Layer 1"><path d="M10,5.45A4.55,4.55,0,1,1,5.45,10,4.55,4.55,0,0,1,10,5.45M10,4a6,6,0,1,0,6,6,6,6,0,0,0-6-6Z"/><line class="cls-1" x1="10" x2="10" y2="4"/><line class="cls-1" x1="10" y1="16" x2="10" y2="20"/><line class="cls-1" y1="10" x2="4" y2="10"/><line class="cls-1" x1="16" y1="10" x2="20" y2="10"/><line class="cls-1" x1="1.34" y1="15" x2="4.8" y2="13"/><line class="cls-1" x1="15.2" y1="7" x2="18.66" y2="5"/><line class="cls-1" x1="5" y1="18.66" x2="7" y2="15.2"/><line class="cls-1" x1="13" y1="4.8" x2="15" y2="1.34"/><line class="cls-1" x1="15" y1="18.66" x2="13" y2="15.2"/><line class="cls-1" x1="7" y1="4.8" x2="5" y2="1.34"/><line class="cls-1" x1="18.66" y1="15" x2="15.2" y2="13"/><line class="cls-1" x1="4.8" y1="7" x2="1.34" y2="5"/></g></g></svg>