<?xml version="1.0" encoding="UTF-8"?>
<svg width="30px" height="30px" viewBox="0 0 30 30" version="1.1" xmlns="http://www.w3.org/2000/svg" xmlns:xlink="http://www.w3.org/1999/xlink">
    <!-- Generator: Sketch 47.1 (45422) - http://www.bohemiancoding.com/sketch -->
    <title>Account</title>
    <desc>Created with Sketch.</desc>
    <defs></defs>
    <g id="Nav" stroke="none" stroke-width="1" fill="none" fill-rule="evenodd">
        <g id="1-NetSense_Home_Dropdown" transform="translate(-1103.000000, -25.000000)" fill="#000000">
            <g id="header">
                <g id="Account">
                    <g transform="translate(1103.000000, 25.000000)">
                        <g id="Page-1">
                            <g id="Group-3">
                                <path d="M6.38016667,24.873 C8.45016667,22.2163333 11.6101667,20.638 15.0001667,20.638 C18.3901667,20.638 21.5501667,22.2163333 23.6201667,24.873 C21.3118333,26.8913333 18.3001667,28.1246667 15.0001667,28.1246667 C11.7001667,28.1246667 8.6885,26.8913333 6.38016667,24.873 M15.0001667,1.87466667 C22.2368333,1.87466667 28.1251667,7.763 28.1251667,14.9996667 C28.1251667,18.258 26.9235,21.2363333 24.9501667,23.5346667 C22.5251667,20.538 18.8901667,18.763 15.0001667,18.763 C11.1085,18.763 7.47516667,20.538 5.05016667,23.5346667 C3.07683333,21.2363333 1.87516667,18.258 1.87516667,14.9996667 C1.87516667,7.763 7.7635,1.87466667 15.0001667,1.87466667 M15.0001667,-0.000333333333 C6.71516667,-0.000333333333 0.000166666667,6.71466667 0.000166666667,14.9996667 C0.000166666667,23.2846667 6.71516667,29.9996667 15.0001667,29.9996667 C23.2851667,29.9996667 30.0001667,23.2846667 30.0001667,14.9996667 C30.0001667,6.71466667 23.2851667,-0.000333333333 15.0001667,-0.000333333333" id="Fill-1"></path>
                            </g>
                            <path d="M15,7.5 C17.0683333,7.5 18.75,9.18166667 18.75,11.25 C18.75,13.3183333 17.0683333,15 15,15 C12.9316667,15 11.25,13.3183333 11.25,11.25 C11.25,9.18166667 12.9316667,7.5 15,7.5 M15,16.875 C18.1066667,16.875 20.625,14.3566667 20.625,11.25 C20.625,8.14333333 18.1066667,5.625 15,5.625 C11.8933333,5.625 9.375,8.14333333 9.375,11.25 C9.375,14.3566667 11.8933333,16.875 15,16.875" id="Fill-4"></path>
                        </g>
                    </g>
                </g>
            </g>
        </g>
    </g>
</svg>