<?xml version="1.0" encoding="UTF-8"?>
<svg width="20px" height="20px" viewBox="0 0 20 20" version="1.1" xmlns="http://www.w3.org/2000/svg" xmlns:xlink="http://www.w3.org/1999/xlink">
    <!-- Generator: Sketch 47.1 (45422) - http://www.bohemiancoding.com/sketch -->
    <title>Edit (2 px) D8DADA Copy</title>
    <desc>Created with Sketch.</desc>
    <defs></defs>
    <g id="Templates" stroke="none" stroke-width="1" fill="none" fill-rule="evenodd">
        <g id="3-Sites_01" transform="translate(-406.000000, -570.000000)" fill="#000000">
            <g id="Group-7" transform="translate(133.000000, 172.000000)">
                <g id="Group-10">
                    <g id="Summary-Report-Copy-2" transform="translate(0.000000, 373.000000)">
                        <g id="Group-22">
                            <g id="header" transform="translate(20.000000, 13.000000)">
                                <g id="Group-3">
                                    <g id="Notifications" transform="translate(253.000000, 12.000000)">
                                        <g id="Shape">
                                            <path d="M16.25,12.49 L16.25,12.49 L16.25,6.25 C16.25,2.79822031 13.4517797,2.11360547e-16 10,0 C6.54822031,-2.11360547e-16 3.75,2.79822031 3.75,6.25 L3.75,12.49 L0,15 L0,16.25 L20,16.25 L20,15 L16.25,12.49 Z M16.25,15 L2.25,15 L4.45,13.53 L5,13.16 L5,6.25 C5,3.48857625 7.23857625,1.25 10,1.25 C12.7614237,1.25 15,3.48857625 15,6.25 L15,13.16 L15.55,13.53 L17.75,15 L16.25,15 Z" fill-rule="nonzero"></path>
                                            <path d="M10,20 C11.3807119,20 12.5,18.8807119 12.5,17.5 L7.5,17.5 C7.5,18.8807119 8.61928813,20 10,20 Z" fill-rule="nonzero"></path>
                                        </g>
                                    </g>
                                </g>
                            </g>
                        </g>
                    </g>
                </g>
            </g>
        </g>
    </g>
</svg>