<?xml version="1.0" encoding="UTF-8"?>
<svg width="20px" height="20px" viewBox="0 0 20 20" version="1.1" xmlns="http://www.w3.org/2000/svg" xmlns:xlink="http://www.w3.org/1999/xlink">
    <!-- Generator: Sketch 47.1 (45422) - http://www.bohemiancoding.com/sketch -->
    <title>Delete (2 px) D8DADA</title>
    <desc>Created with Sketch.</desc>
    <defs></defs>
    <g id="Nav" stroke="none" stroke-width="1" fill="none" fill-rule="evenodd">
        <g id="1-NetSense_Home_Dropdown" transform="translate(-1119.000000, -263.000000)" fill="#000000">
            <g id="Group-28" transform="translate(133.000000, 248.000000)">
                <g id="Group-27" transform="translate(20.000000, 15.000000)">
                    <g id="Group-26">
                        <g id="Site" transform="translate(966.000000, 0.000000)">
                            <g id="Shape">
                                <path d="M18.5,1.5 L18.5,18.5 L1.5,18.5 L1.5,1.5 L18.5,1.5 L18.5,1.5 Z M20,0 L0,0 L0,20 L20,20 L20,0 Z" fill-rule="nonzero"></path>
                                <path d="M7,6 L7,7 L6,7 L6,6 L7,6 L7,6 Z M8.5,4.5 L4.5,4.5 L4.5,8.5 L8.5,8.5 L8.5,4.5 Z" fill-rule="nonzero"></path>
                                <path d="M14,6 L14,7 L13,7 L13,6 L14,6 L14,6 Z M15.5,4.5 L11.5,4.5 L11.5,8.5 L15.5,8.5 L15.5,4.5 Z" fill-rule="nonzero"></path>
                                <path d="M7,13 L7,14 L6,14 L6,13 L7,13 L7,13 Z M8.5,11.5 L4.5,11.5 L4.5,15.5 L8.5,15.5 L8.5,11.5 Z" fill-rule="nonzero"></path>
                                <path d="M14,13 L14,14 L13,14 L13,13 L14,13 L14,13 Z M15.5,11.5 L11.5,11.5 L11.5,15.5 L15.5,15.5 L15.5,11.5 Z" fill-rule="nonzero"></path>
                            </g>
                        </g>
                    </g>
                </g>
            </g>
        </g>
    </g>
</svg>