<?xml version="1.0" encoding="UTF-8"?>
<svg width="20px" height="20px" viewBox="0 0 20 20" version="1.1" xmlns="http://www.w3.org/2000/svg" xmlns:xlink="http://www.w3.org/1999/xlink">
    <!-- Generator: Sketch 47.1 (45422) - http://www.bohemiancoding.com/sketch -->
    <title>Search</title>
    <desc>Created with Sketch.</desc>
    <defs></defs>
    <g id="Templates" stroke="none" stroke-width="1" fill="none" fill-rule="evenodd">
        <g id="6-Groups_02" transform="translate(-153.000000, -218.000000)" fill="#000000">
            <g id="Group-17" transform="translate(133.000000, 152.000000)">
                <g id="Group-16">
                    <g id="Group-6">
                        <g id="Group-5" transform="translate(20.000000, 66.000000)">
                            <g id="Group-28">
                                <g id="Group-27">
                                    <g id="Group-26">
                                        <g id="Group-3">
                                            <g id="device">
                                                <g id="Shape">
                                                    <path d="M20,6.5 L20,5 L18.5,5 L18.5,1.5 L15,1.5 L15,0 L13.5,0 L13.5,1.5 L6.5,1.5 L6.5,0 L5,0 L5,1.5 L1.5,1.5 L1.5,5 L0,5 L0,6.5 L1.5,6.5 L1.5,13.5 L0,13.5 L0,15 L1.5,15 L1.5,18.5 L5,18.5 L5,20 L6.5,20 L6.5,18.5 L13.5,18.5 L13.5,20 L15,20 L15,18.5 L18.5,18.5 L18.5,15 L20,15 L20,13.5 L18.5,13.5 L18.5,6.5 L20,6.5 Z M17,17 L3,17 L3,3 L17,3 L17,17 Z" fill-rule="nonzero"></path>
                                                    <path d="M11.5,8.5 L11.5,11.5 L8.5,11.5 L8.5,8.5 L11.5,8.5 L11.5,8.5 Z M13,7 L7,7 L7,13 L13,13 L13,7 Z" fill-rule="nonzero"></path>
                                                </g>
                                            </g>
                                        </g>
                                    </g>
                                </g>
                            </g>
                        </g>
                    </g>
                </g>
            </g>
        </g>
    </g>
</svg>