<?xml version="1.0" encoding="UTF-8"?>
<svg width="20px" height="20px" viewBox="0 0 20 20" version="1.1" xmlns="http://www.w3.org/2000/svg" xmlns:xlink="http://www.w3.org/1999/xlink">
    <!-- Generator: Sketch 48.1 (47250) - http://www.bohemiancoding.com/sketch -->
    <title>lighting-icon</title>
    <desc>Created with Sketch.</desc>
    <defs></defs>
    <g id="Symbols" stroke="none" stroke-width="1" fill="none" fill-rule="evenodd">
        <g id="lighting-icon" fill="#000000" fill-rule="nonzero">
            <g id="ideas-solutions" transform="translate(4.000000, 0.000000)">
                <rect id="Rectangle-path" x="3.63636364" y="15.1515152" width="4.84848485" height="1.21212121"></rect>
                <rect id="Rectangle-path" x="3.63636364" y="16.969697" width="4.84848485" height="1.21212121"></rect>
                <polygon id="Shape" points="5.57422 20 6.54801717 20 7.27272727 18.7878788 4.84848485 18.7878788"></polygon>
                <path d="M12.1212121,6.07465974 C12.1166865,2.71838876 9.40458671,-5.40196556e-16 6.06060606,0 C2.71662541,5.39230193e-16 0.00452562402,2.71838876 0,6.07465974 C0.00330467002,7.19142728 0.316170701,8.28524142 0.903588069,9.23370326 L0.880276829,9.23370326 C1.35291777,10.2608066 3.57087126,14.0464647 3.57087126,14.5454545 L8.55038526,14.5454545 C8.55038526,14.0464647 10.7682832,10.2608066 11.2404358,9.23370326 L11.2176685,9.23370326 C11.8050702,8.2852368 12.1179208,7.19142298 12.1212121,6.07465974 Z M1.23905902,6.07465974 C1.23535738,4.3432827 2.1535276,2.74183241 3.64683813,1.87506962 C5.14014867,1.00830683 6.98105235,1.00830683 8.47436289,1.87506962 C9.96767342,2.74183241 10.8858436,4.3432827 10.882142,6.07465974 C10.8795864,7.24025447 10.4508369,8.36436065 9.67723951,9.23370326 L2.44451654,9.23370326 C1.67075645,8.36441908 1.24181187,7.24031926 1.23905902,6.07465974 Z M9.14281268,10.5495805 C8.41433642,11.8866376 7.96608348,12.7289051 7.69616152,13.3021635 L4.4250617,13.3021635 C4.15459582,12.7290388 3.7068535,11.886905 2.97841054,10.5498591 L2.93883694,10.4770834 L9.18240848,10.4770834 L9.14281268,10.5495805 Z" id="Shape"></path>
            </g>
        </g>
    </g>
</svg>