<?xml version="1.0" encoding="UTF-8"?>
<svg width="20px" height="20px" viewBox="0 0 20 20" version="1.1" xmlns="http://www.w3.org/2000/svg" xmlns:xlink="http://www.w3.org/1999/xlink">
    <!-- Generator: Sketch 48.1 (47250) - http://www.bohemiancoding.com/sketch -->
    <title>sensor</title>
    <desc>Created with Sketch.</desc>
    <defs></defs>
    <g id="Symbols" stroke="none" stroke-width="1" fill="none" fill-rule="evenodd">
        <g id="sensor" fill="#000000">
            <circle id="Oval-3" cx="10" cy="10" r="1"></circle>
            <path d="M2.92948967,2.92837475 L3.99035175,3.98883307 C2.45170804,5.52709048 1.5,7.65240358 1.5,10 C1.5,12.3475964 2.45170804,14.4729095 3.99035175,16.0111669 L2.92948967,17.0716253 C1.119518,15.2619372 0,12.7617073 0,10 C0,7.2382927 1.119518,4.73806284 2.92948967,2.92837475 Z M17.0716255,2.92948988 C18.8809418,4.73908987 20,7.23885991 20,10 C20,12.7611401 18.8809418,15.2609101 17.0716255,17.0705101 L16.0111672,16.009648 C17.5489183,14.4715106 18.5,12.3468238 18.5,10 C18.5,7.6531762 17.5489183,5.52848943 16.0111672,3.99035203 L17.0716255,2.92948988 Z" id="Combined-Shape"></path>
            <path d="M5.05121384,5.04929141 L6.11207596,6.10974979 C5.11608815,7.10514577 4.5,8.48062533 4.5,10 C4.5,11.5193747 5.11608815,12.8948542 6.11207596,13.8902502 L5.05121384,14.9507086 C3.78389809,13.6838819 3,11.9334855 3,10 C3,8.06651446 3.78389809,6.31611812 5.05121384,5.04929141 Z M14.950709,5.0512142 C16.2168948,6.31788899 17,8.06749248 17,10 C17,11.9325075 16.2168948,13.682111 14.950709,14.9487858 L13.8902507,13.8879236 C14.8848712,12.8927114 15.5,11.5181912 15.5,10 C15.5,8.48180877 14.8848712,7.10728856 13.8902507,6.11207641 L14.950709,5.0512142 Z" id="Combined-Shape"></path>
            <path d="M7.17293816,7.17020824 L8.23380057,8.2306669 C7.78046848,8.68320111 7.5,9.30884709 7.5,10 C7.5,10.6911529 7.78046848,11.3167989 8.23380057,11.7693331 L7.17293816,12.8297918 C6.44827826,12.1058266 6,11.1052638 6,10 C6,8.89473621 6.44827826,7.89417342 7.17293816,7.17020824 Z M12.8297923,7.17293869 C13.5528476,7.89668814 14,8.89612505 14,10 C14,11.1038749 13.5528476,12.1033119 12.8297923,12.8270613 L11.7693337,11.7661988 C12.2208239,11.3139123 12.5,10.6895587 12.5,10 C12.5,9.31044134 12.2208239,8.68608774 11.7693337,8.23380117 L12.8297923,7.17293869 Z" id="Combined-Shape"></path>
        </g>
    </g>
</svg>