<svg xmlns="http://www.w3.org/2000/svg" viewBox="0 0 23.2 17"><defs><style>.cls-1{fill:none;stroke:#4b4b4b;stroke-miterlimit:10;stroke-width:1.2px;}</style></defs><title>Accounts_1</title><g id="Layer_2" data-name="Layer 2"><g id="icons"><path class="cls-1" d="M9,5.82a3.33,3.33,0,0,0,5.53-.05A3.34,3.34,0,0,0,15,3.93v0a3.33,3.33,0,0,0-6.66,0v0A3.33,3.33,0,0,0,9,5.82Z"/><path class="cls-1" d="M2.77,8.25A2.34,2.34,0,0,0,7,6.93v0a2.34,2.34,0,0,0-4.67,0v0a2.34,2.34,0,0,0,.41,1.32Z"/><path class="cls-1" d="M16.63,8.25a2.34,2.34,0,0,0,4.26-1.32v0a2.34,2.34,0,0,0-4.67,0v0a2.34,2.34,0,0,0,.41,1.32Z"/><path class="cls-1" d="M22.6,14.82a4.3,4.3,0,0,0-.7-2A4.08,4.08,0,0,0,19.37,11a4,4,0,0,0-.82-.1h0a3.88,3.88,0,0,0-2.21.7,5.81,5.81,0,0,0-3.41-2.22,5.63,5.63,0,0,0-1.18-.14h-.06a5.67,5.67,0,0,0-1.19.13A5.8,5.8,0,0,0,7,11.7,4,4,0,0,0,5.52,11a3.94,3.94,0,0,0-.82-.1h0a4,4,0,0,0-.84.09A4.18,4.18,0,0,0,.6,14.82V16.4h22Z"/></g></g></svg>