<svg xmlns="http://www.w3.org/2000/svg" viewBox="0 0 23.2 16.16"><defs><style>.cls-1{fill:none;stroke:#4b4b4b;stroke-miterlimit:10;stroke-width:1.2px;}</style></defs><title>Commissioning_1</title><g id="Layer_2" data-name="Layer 2"><g id="styleguid"><path class="cls-1" d="M21.61,13.57h-.4v-2.5a9.63,9.63,0,0,0-4.66-8.23V9.71a1,1,0,0,1-1,1c-.55,0-1.38-.45-1.38-1l0-8.63A7.23,7.23,0,0,0,9,1.08L9,9.71c0,.55-.84,1-1.38,1a1,1,0,0,1-1-1V2.85A9.63,9.63,0,0,0,2,11.08v2.5H1.59a1,1,0,0,0,0,2,67,67,0,0,1,20,0,1,1,0,0,0,0-2Z"/></g></g></svg>