<svg xmlns="http://www.w3.org/2000/svg" viewBox="0 0 23 23"><defs><style>.cls-1,.cls-2{fill:none;}.cls-2{stroke:#4b4b4b;stroke-miterlimit:10;}.cls-3{fill:#4b4b4b;}</style></defs><title>Configurations</title><g id="Layer_2" data-name="Layer 2"><g id="styleguid"><path class="cls-1" d="M3,18a1.34,1.34,0,0,0,0,1.91,1.36,1.36,0,0,0,1.92,0,1.34,1.34,0,0,0,0-1.91A1.36,1.36,0,0,0,3,18Z"/><path class="cls-2" d="M9.1,18.19l.39-.29-.39-.29a1.56,1.56,0,0,1-.41-2L9.61,14A1.56,1.56,0,0,1,11,13.2a1.55,1.55,0,0,1,.61.12l.41.17,0-.39a1.56,1.56,0,0,1,1.55-1.37h1.85A1.56,1.56,0,0,1,17,13.09l.05.39.39-.16a1.56,1.56,0,0,1,2,.65l0,.08a7.55,7.55,0,0,0,.89-.75,7.47,7.47,0,0,0,2.18-6A.65.65,0,0,0,21.36,7L17.7,10.6,13.64,9.32l-1.29-4L16,1.63a.65.65,0,0,0-.4-1.1,7.51,7.51,0,0,0-7.7,10.13l-.33.3-6,5.28h0a3.67,3.67,0,1,0,5.2,5.17l0,0,1.68-2A1.56,1.56,0,0,1,9.1,18.19Z"/><path class="cls-3" d="M17.45,18.36a2.74,2.74,0,0,0,0-.91l.89-.68a.2.2,0,0,0,.05-.26l-.78-1.35a.2.2,0,0,0-.25-.08l-1,.44a3,3,0,0,0-.71-.41L15.47,14a.2.2,0,0,0-.2-.17H13.71a.2.2,0,0,0-.2.18l-.13,1.1a3,3,0,0,0-.72.42l-1.06-.44a.2.2,0,0,0-.25.08l-.78,1.35a.2.2,0,0,0,.05.26l.9.68a3,3,0,0,0,0,.44,3,3,0,0,0,0,.46l-.91.68a.2.2,0,0,0-.05.26l.78,1.35a.2.2,0,0,0,.25.08l1.08-.45a3,3,0,0,0,.7.4l.14,1.13a.2.2,0,0,0,.2.18h1.56a.2.2,0,0,0,.2-.17l.14-1.13a3,3,0,0,0,.69-.39l1.07.45a.2.2,0,0,0,.25-.08l.78-1.35a.2.2,0,0,0-.05-.26Zm-3,.91A1.48,1.48,0,1,1,16,17.78,1.48,1.48,0,0,1,14.48,19.26Z"/></g></g></svg>