<svg xmlns="http://www.w3.org/2000/svg" viewBox="0 0 20.12 22.6"><defs><style>.cls-1{fill:#4b4b4b;}.cls-2{fill:none;stroke:#4b4b4b;stroke-miterlimit:10;stroke-width:1.2px;}</style></defs><title>Energy_1</title><g id="Layer_2" data-name="Layer 2"><g id="Layer_20" data-name="Layer 20"><path class="cls-1" d="M4.09,0h0a1,1,0,0,1,1,1V6a0,0,0,0,1,0,0h-2a0,0,0,0,1,0,0V1a1,1,0,0,1,1-1Z"/><path class="cls-1" d="M16.13,0h0a1,1,0,0,1,1,1V6a0,0,0,0,1,0,0h-2a0,0,0,0,1,0,0V1a1,1,0,0,1,1-1Z"/><path class="cls-2" d="M.6,8.36V8.6A9.46,9.46,0,0,0,9.32,18v4h2.39V17.91A9.46,9.46,0,0,0,19.52,8.6V8.36Z"/></g></g></svg>