<svg xmlns="http://www.w3.org/2000/svg" viewBox="0 0 23.2 22.6"><defs><style>.cls-1{fill:none;stroke:#4b4b4b;stroke-miterlimit:10;stroke-width:1.2px;}.cls-2{fill:#4b4b4b;}</style></defs><title>Notifications_1</title><g id="Layer_2" data-name="Layer 2"><g id="icons"><path class="cls-1" d="M11.6.6A1.44,1.44,0,0,0,10.13,2v.14C7.53,2.65,5.46,4.53,5,7.92,4.08,13.79,3.7,15.44,1.56,17a1.84,1.84,0,0,0-1,1.92,0,0,0,0,0,0,0H22.56a0,0,0,0,0,0,0,1.84,1.84,0,0,0-1-1.92c-2.14-1.55-2.52-3.21-3.4-9.08-.51-3.39-2.57-5.27-5.18-5.76v0A1.5,1.5,0,0,0,11.81.61Z"/><path class="cls-2" d="M13.75,20.48H9.45a0,0,0,0,0,0,0,2.2,2.2,0,0,0,4.4,0,0,0,0,0,0,0,0Z"/></g></g></svg>