<svg xmlns="http://www.w3.org/2000/svg" viewBox="0 0 20.41 23.2"><defs><style>.cls-1{fill:none;stroke:#4b4b4b;stroke-miterlimit:10;stroke-width:1.2px;}</style></defs><title>Users_1</title><g id="Layer_2" data-name="Layer 2"><g id="icons"><path class="cls-1" d="M15.78,6.06a5.49,5.49,0,0,0-11,0s0,0,0,0a5.49,5.49,0,0,0,11,0S15.78,6.07,15.78,6.06Z"/><path class="cls-1" d="M19.81,22.6h0a10.11,10.11,0,0,0-1.65-4.81,9.6,9.6,0,0,0-5.95-4.11,9.28,9.28,0,0,0-1.94-.23h-.11a9.35,9.35,0,0,0-2,.22A9.84,9.84,0,0,0,.65,22.59H19.81Z"/></g></g></svg>