<?xml version="1.0" encoding="utf-8"?>
<!-- Generator: Adobe Illustrator 19.2.1, SVG Export Plug-In . SVG Version: 6.00 Build 0)  -->
<svg version="1.1" id="Ebene_1" xmlns="http://www.w3.org/2000/svg" xmlns:xlink="http://www.w3.org/1999/xlink" x="0px" y="0px"
	 viewBox="0 0 18 18" style="enable-background:new 0 0 18 18;" xml:space="preserve">
<g>
	<path d="M9,0C4.029,0,0,4.029,0,9c0,4.971,4.029,9,9,9s9-4.029,9-9C18,4.029,13.971,0,9,0z M9,1.125
		c4.342,0,7.875,3.533,7.875,7.875c0,1.955-0.721,3.742-1.905,5.121c-1.455-1.798-3.636-2.863-5.97-2.863
		c-2.335,0-4.515,1.065-5.97,2.863C1.846,12.742,1.125,10.955,1.125,9C1.125,4.658,4.658,1.125,9,1.125z M3.828,14.924
		C5.07,13.33,6.966,12.383,9,12.383c2.034,0,3.93,0.947,5.172,2.541C12.787,16.135,10.98,16.875,9,16.875S5.213,16.135,3.828,14.924
		z"/>
	<path d="M9,10.125c1.864,0,3.375-1.511,3.375-3.375S10.864,3.375,9,3.375S5.625,4.886,5.625,6.75S7.136,10.125,9,10.125z M9,4.5
		c1.241,0,2.25,1.009,2.25,2.25S10.241,9,9,9S6.75,7.991,6.75,6.75S7.759,4.5,9,4.5z"/>
</g>
</svg>
