<svg xmlns="http://www.w3.org/2000/svg" viewBox="0 0 18 14.9173"><title>icon</title><path d="M6.32349,7.87445A3.31558,3.31558,0,1,0,3.00781,4.55884,3.31952,3.31952,0,0,0,6.32349,7.87445Zm0-5.51141a2.1958,2.1958,0,1,1-2.1958,2.1958A2.19834,2.19834,0,0,1,6.32349,2.363Z"/><path d="M13.20239,5.172a2.586,2.586,0,1,0-2.58618-2.586A2.58875,2.58875,0,0,0,13.20239,5.172Zm0-4.05219A1.46622,1.46622,0,1,1,11.73608,2.586,1.46757,1.46757,0,0,1,13.20239,1.11981Z"/><path d="M13.20239,5.76544A4.77609,4.77609,0,0,0,8.65918,9.046,6.31224,6.31224,0,0,0,0,14.9173H1.11963a5.20386,5.20386,0,1,1,10.40771,0H12.647A6.31929,6.31929,0,0,0,9.676,9.56512a3.67024,3.67024,0,0,1,7.20434.998H18A4.80289,4.80289,0,0,0,13.20239,5.76544Z"/></svg>