<?xml version="1.0" encoding="utf-8"?>
<!-- Generator: Adobe Illustrator 19.1.0, SVG Export Plug-In . SVG Version: 6.00 Build 0)  -->
<svg version="1.1" id="Layer_1" xmlns="http://www.w3.org/2000/svg" xmlns:xlink="http://www.w3.org/1999/xlink" x="0px" y="0px"
	 viewBox="-159 124.3 40.4 40.7" style="enable-background:new -159 124.3 40.4 40.7;" xml:space="preserve">
<style type="text/css">
	.st0{fill:#d81e1e;}
</style>
<g>
	<g id="U4h6fE_1_">
		<g>
			<path class="st0" d="M-142.1,147.5c-2.7,0-5,0-7.2,0c-3.2-0.1-4.1-0.9-4.1-4c0-4.8,0.1-9.6,0-14.5c0-2.6,1.2-4,3.6-4.1
				c7.4-0.1,14.7-0.1,22.1,0c2.4,0,3.7,1.5,3.7,4.1c-0.1,4.8,0,9.6,0,14.5c0,3.1-1,4-4.1,4c-2.3,0-4.7,0-7.2,0c0,4-0.2,7.6,0,11.1
				c0.2,3-1.8,2.4-3.5,2.5c-1.7,0-3.4,0.3-3.2-2.5C-142,155.1-142.1,151.5-142.1,147.5z M-138.8,143c3.4,0,6.8,0,10.2,0
				c1.7,0,2.4-0.6,2.4-2.3c-0.1-3.8,0.1-7.6-0.1-11.3c0-0.8-1.3-2.2-2.1-2.2c-6.9-0.2-13.8-0.2-20.7,0c-0.8,0-2.1,1.4-2.1,2.2
				c-0.2,3.8-0.1,7.6-0.1,11.3c0,1.7,0.7,2.4,2.4,2.3C-145.6,143-142.2,143-138.8,143z"/>
		</g>
	</g>
	<path class="st0" d="M-130.5,164.4h-16.6c-0.6,0-1-0.5-1-1l0,0c0-0.6,0.5-1,1-1h16.6c0.6,0,1,0.5,1,1l0,0
		C-129.4,164-129.9,164.4-130.5,164.4z"/>
</g>
</svg>
