<svg xmlns="http://www.w3.org/2000/svg" viewBox="0 0 23.92 23.92"><defs><style>.cls-1{fill:none;stroke:#4b4b4b;stroke-miterlimit:10;stroke-width:1.2px;}</style></defs><title>Daylight Harvesting</title><g id="Layer_2" data-name="Layer 2"><g id="styleguid"><circle class="cls-1" cx="11.96" cy="11.96" r="7.24"/><polygon class="cls-1" points="11.96 0.96 13.46 2.84 14.97 4.72 11.96 4.72 8.96 4.72 10.46 2.84 11.96 0.96"/><polygon class="cls-1" points="11.96 22.96 10.46 21.08 8.96 19.2 11.96 19.2 14.97 19.2 13.46 21.08 11.96 22.96"/><polygon class="cls-1" points="19.75 4.17 19.48 6.57 19.22 8.96 17.09 6.83 14.97 4.71 17.36 4.44 19.75 4.17"/><polygon class="cls-1" points="4.17 19.75 4.44 17.36 4.71 14.97 6.83 17.09 8.96 19.22 6.57 19.48 4.17 19.75"/><polygon class="cls-1" points="22.96 11.96 21.08 13.46 19.2 14.97 19.2 11.96 19.2 8.96 21.08 10.46 22.96 11.96"/><polygon class="cls-1" points="0.96 11.96 2.84 10.46 4.72 8.96 4.72 11.96 4.72 14.97 2.84 13.46 0.96 11.96"/><polygon class="cls-1" points="4.17 4.17 6.57 4.44 8.96 4.71 6.83 6.83 4.71 8.96 4.44 6.57 4.17 4.17"/><polygon class="cls-1" points="19.75 19.75 17.36 19.48 14.97 19.22 17.09 17.09 19.22 14.97 19.48 17.36 19.75 19.75"/></g></g></svg>