<svg xmlns="http://www.w3.org/2000/svg" viewBox="0 0 23.2 23.2"><defs><style>.cls-1{fill:none;stroke:#4b4b4b;stroke-miterlimit:10;stroke-width:1.2px;}</style></defs><title>Fixures</title><g id="Layer_2" data-name="Layer 2"><g id="styleguid"><path class="cls-1" d="M20.75,8.48l-3-1.63a3.55,3.55,0,0,1-1.41-1.41l-1.63-3a3.55,3.55,0,0,0-6.24,0l-1.63,3A3.55,3.55,0,0,1,5.44,6.85l-3,1.63a3.55,3.55,0,0,0,0,6.24l3,1.63a3.56,3.56,0,0,1,1.41,1.41l1.63,3a3.55,3.55,0,0,0,6.24,0l1.63-3a3.55,3.55,0,0,1,1.41-1.41l3-1.63A3.55,3.55,0,0,0,20.75,8.48Z"/><circle class="cls-1" cx="11.54" cy="11.54" r="3.52"/></g></g></svg>